<svg xmlns="http://www.w3.org/2000/svg" viewBox="0 0 24 24"><path fill="#C3160B" d="M7.2 9.6C5.88 9.6 4.8 10.68 4.8 12s1.08 2.4 2.4 2.4h9.6c1.32 0 2.4-1.08 2.4-2.4s-1.08-2.4-2.4-2.4H7.2zM16.8 13.2H7.2c-.66 0-1.2-.54-1.2-1.2s.54-1.2 1.2-1.2h9.6c.66 0 1.2.54 1.2 1.2s-.54 1.2-1.2 1.2z"/><path fill="#C3160B" d="M21.6 12c0-2.64-2.16-4.8-4.8-4.8H7.2C4.56 7.2 2.4 9.36 2.4 12s2.16 4.8 4.8 4.8h9.6c2.64 0 4.8-2.16 4.8-4.8zm-1.2 0c0 1.98-1.62 3.6-3.6 3.6H7.2c-1.98 0-3.6-1.62-3.6-3.6s1.62-3.6 3.6-3.6h9.6c1.98 0 3.6 1.62 3.6 3.6z"/></svg>