<svg xmlns="http://www.w3.org/2000/svg" viewBox="0 0 32 32" fill="currentColor">
  <path d="M16 2C8.268 2 2 8.268 2 16s6.268 14 14 14 14-6.268 14-14S23.732 2 16 2zm0 2c6.627 0 12 5.373 12 12s-5.373 12-12 12S4 22.627 4 16 9.373 4 16 4z"/>
  <path d="M16 7c-1.1 0-2 .5-2.6 1.3L9.8 13c-.4.5-.6 1.1-.6 1.7v2.6c0 .6.2 1.2.6 1.7l3.6 4.7c.6.8 1.5 1.3 2.6 1.3s2-.5 2.6-1.3l3.6-4.7c.4-.5.6-1.1.6-1.7v-2.6c0-.6-.2-1.2-.6-1.7l-3.6-4.7C18 7.5 17.1 7 16 7zm0 2c.4 0 .7.2.9.4l3.6 4.7c.1.2.2.4.2.6v2.6c0 .2-.1.4-.2.6L16.9 22.6c-.2.3-.5.4-.9.4s-.7-.2-.9-.4l-3.6-4.7c-.1-.2-.2-.4-.2-.6v-2.6c0-.2.1-.4.2-.6L15.1 9.4c.2-.3.5-.4.9-.4z"/>
</svg>
